<svg width="10" height="10" viewBox="0 0 10 10" fill="none" xmlns="http://www.w3.org/2000/svg">
<g clip-path="url(#clip0_1_72)">
<path d="M10 7.86138C10 8.22493 9.79747 8.92503 9.34241 9.30958C9.2514 9.37959 9.16039 9.34008 9.20039 9.23807C9.33291 8.91403 9.63595 8.16443 9.49393 7.9919C9.39342 7.86088 8.97836 7.87089 8.62432 7.90089C8.46279 7.92139 8.32077 7.93089 8.21076 7.9534C8.10875 7.9614 8.08824 7.87189 8.19026 7.80188C8.32311 7.70809 8.46994 7.63585 8.62531 7.58785C9.20039 7.41583 9.86498 7.51934 9.96049 7.62935C9.9785 7.65036 10 7.70986 10 7.86138ZM9.03887 8.50797C8.90699 8.60882 8.76849 8.7007 8.62432 8.78301C7.56317 9.4206 6.18849 9.75464 4.99483 9.75464C3.07307 9.75464 1.35434 9.04605 0.0501613 7.86039C-0.0618537 7.76937 0.0306587 7.63735 0.161676 7.70886C1.56687 8.52897 3.3061 9.02504 5.10634 9.02504C6.23949 9.02504 7.46066 8.81301 8.62432 8.35695C8.70583 8.32645 8.79684 8.28494 8.87635 8.25594C9.05987 8.17343 9.2214 8.37696 9.03887 8.50797ZM5.95346 2.99223C5.95346 2.47166 5.97446 2.16512 5.80194 1.90208C5.64891 1.68556 5.38538 1.55554 5.01733 1.57604C4.61828 1.59804 4.18972 1.85958 4.0807 2.33914C4.0592 2.44916 3.99519 2.55717 3.86217 2.58068L2.64451 2.42565C2.5575 2.40565 2.42498 2.33914 2.46849 2.16512C2.73002 0.789435 3.90568 0.30987 5.01783 0.245361H5.27886C5.88895 0.245361 6.67305 0.419885 7.17462 0.877446C7.7832 1.44552 7.71819 2.20863 7.71819 3.03774V5.0015C7.71819 5.59058 7.95723 5.85161 8.19726 6.15866C8.26227 6.26817 8.28477 6.39719 8.17525 6.4862C7.86021 6.76708 7.54063 7.04282 7.21663 7.31331C7.12911 7.37982 6.97209 7.38682 6.91158 7.33581C6.52653 7.01327 6.43252 6.83425 6.19399 6.5067C5.77893 6.94226 5.43039 7.18279 5.01583 7.31331C4.72429 7.38729 4.42448 7.42359 4.12371 7.42133C3.07857 7.42133 2.25096 6.76974 2.25096 5.48107C2.25096 4.45643 2.79603 3.75983 3.60114 3.43029C4.40625 3.10025 5.5764 2.99523 5.95346 2.99323M5.71492 5.58958C5.97496 5.15352 5.95346 4.79647 5.95346 3.99687C5.62741 3.99687 5.30037 4.01937 5.01783 4.08588C4.49526 4.2374 4.0802 4.56594 4.0802 5.26354C4.0802 5.80861 4.36424 6.17966 4.84331 6.17966C4.90932 6.17966 4.96732 6.17166 5.01733 6.15716C5.35237 6.06414 5.5614 5.89612 5.71492 5.58958Z" fill="#1B1B20"/>
</g>
<defs>
<clipPath id="clip0_1_72">
<rect width="10" height="10" fill="white"/>
</clipPath>
</defs>
</svg>
