<svg width="48" height="48" viewBox="0 0 48 48" fill="none" xmlns="http://www.w3.org/2000/svg">
<path d="M47.9998 23.8301C48.0179 28.565 46.6257 33.1988 43.9995 37.1444C41.3734 41.0901 37.6314 44.1703 33.2476 45.9947C28.8638 47.8192 24.0354 48.3059 19.3738 47.3932C14.7123 46.4805 10.4274 44.2094 7.06178 40.8677C3.69619 37.526 1.40134 33.2639 0.467881 28.6212C-0.46558 23.9786 0.00434463 19.1643 1.81814 14.788C3.63193 10.4118 6.70799 6.67048 10.6567 4.03799C14.6055 1.4055 19.2492 0.000246086 23.9998 0.000211899C27.1476 -0.013021 30.267 0.593661 33.1788 1.78542C36.0907 2.97717 38.7377 4.73052 40.9677 6.94478C43.1978 9.15903 44.967 11.7906 46.1738 14.6882C47.3806 17.5859 48.0011 20.6927 47.9998 23.8301Z" fill="#9667E0"/>
<path d="M36.2686 13.8025L34.3486 45.5789C30.7985 47.303 26.877 48.1289 22.9305 47.9837C18.9841 47.8385 15.1344 46.7267 11.7214 44.7465L13.6414 12.4534C13.6512 12.2703 13.6973 12.0909 13.7771 11.9256C13.8569 11.7603 13.9687 11.6125 14.1062 11.4906C14.2437 11.3687 14.4041 11.2751 14.5781 11.2154C14.752 11.1557 14.9362 11.1309 15.1198 11.1425L34.9198 12.3242C35.1065 12.3309 35.2899 12.3747 35.4593 12.4531C35.6287 12.5314 35.7807 12.6427 35.9064 12.7804C36.032 12.9182 36.1288 13.0795 36.191 13.255C36.2532 13.4306 36.2796 13.6167 36.2686 13.8025Z" fill="white"/>
<path d="M27.3143 13.039L22.681 12.7623C22.509 12.752 22.3612 12.8826 22.3509 13.0541C22.3406 13.2255 22.4717 13.3728 22.6437 13.3831L27.277 13.6599C27.449 13.6701 27.5968 13.5395 27.6071 13.3681C27.6174 13.1966 27.4863 13.0493 27.3143 13.039Z" fill="#9667E0"/>
<path d="M29.5151 25.9377L20.4354 25.3952C20.0729 25.3736 19.7613 25.649 19.7396 26.0103L19.7393 26.0151C19.7176 26.3764 19.9939 26.6869 20.3564 26.7085L29.4361 27.2509C29.7986 27.2726 30.1101 26.9972 30.1319 26.6359L30.1322 26.6311C30.1539 26.2698 29.8776 25.9593 29.5151 25.9377Z" fill="#9667E0"/>
<path d="M27.6742 29.7855L18.5945 29.2431C18.232 29.2215 17.9205 29.4968 17.8987 29.8582L17.8985 29.8629C17.8767 30.2243 18.153 30.5348 18.5155 30.5564L27.5952 31.0988C27.9578 31.1205 28.2693 30.8451 28.291 30.4838L28.2913 30.479C28.313 30.1177 28.0367 29.8072 27.6742 29.7855Z" fill="#9667E0"/>
<path d="M29.1503 33.6332L20.0705 33.0908C19.708 33.0691 19.3965 33.3445 19.3748 33.7058L19.3745 33.7106C19.3528 34.0719 19.629 34.3824 19.9916 34.4041L29.0713 34.9465C29.4338 34.9681 29.7453 34.6928 29.767 34.3314L29.7673 34.3267C29.7891 33.9653 29.5128 33.6548 29.1503 33.6332Z" fill="#9667E0"/>
<path d="M27.0951 37.4811L18.0154 36.9387C17.6529 36.917 17.3414 37.1924 17.3196 37.5537L17.3193 37.5585C17.2976 37.9198 17.5739 38.2303 17.9364 38.2519L27.0161 38.7944C27.3787 38.816 27.6902 38.5406 27.7119 38.1793L27.7122 38.1745C27.7339 37.8132 27.4576 37.5027 27.0951 37.4811Z" fill="#9667E0"/>
</svg>
