<svg width="10" height="10" viewBox="0 0 10 10" fill="none" xmlns="http://www.w3.org/2000/svg">
<g clip-path="url(#clip0_1_42)">
<path d="M1.59701 0.555417C1.54964 0.555884 1.50271 0.564481 1.45826 0.580833V0.416667C1.45826 0.187083 1.64534 0 1.87492 0H7.98617C8.21575 0 8.40284 0.187083 8.40284 0.416667V0.555417H1.59701ZM8.8195 1.52792H1.18034C0.950755 1.52792 0.763672 1.715 0.763672 1.94458V9.58333C0.763672 9.81292 0.950755 10 1.18034 10H4.22201L4.67951 7.64792H3.74617C3.72492 7.64792 1.59701 7.5475 1.59701 7.5475L3.52992 7.41125L3.49742 7.25875L2.67326 7.14L3.45742 7.07417L3.40576 6.88708L2.12451 6.6925C2.12451 6.6925 3.51659 6.53708 3.53784 6.53708H4.8845L4.98742 5.9825C5.10784 5.30917 5.38117 4.81292 5.8095 4.44375C6.23992 4.07208 6.78617 3.88875 7.44992 3.88875C7.71784 3.88875 7.88867 3.95167 7.96284 4.08167C8.012 4.15917 8.04659 4.29667 8.07909 4.43958C8.10992 4.58625 8.13742 4.71917 8.11867 4.81583C8.09492 4.95958 7.92659 5.00958 7.61992 5.00958H7.5145C6.96159 5.00958 6.62534 5.3275 6.51242 5.97208L6.41117 6.53667H7.05284C7.29201 6.53667 7.37825 6.70417 7.31201 7.08083C7.24117 7.47292 7.08742 7.6475 6.84909 7.6475H6.20825L5.75159 10H8.81909C9.04867 10 9.23575 9.81292 9.23575 9.58333V1.94458C9.23575 1.83415 9.19191 1.72823 9.11386 1.6501C9.03581 1.57197 8.92994 1.52803 8.8195 1.52792ZM8.54159 0.972083C8.54148 0.935318 8.52682 0.900091 8.50083 0.874094C8.47483 0.848097 8.4396 0.833443 8.40284 0.833333H1.59701C1.56024 0.833443 1.52501 0.848097 1.49902 0.874094C1.47302 0.900091 1.45837 0.935318 1.45826 0.972083V1.25H8.54159V0.972083Z" fill="#1B1B20"/>
</g>
<defs>
<clipPath id="clip0_1_42">
<rect width="10" height="10" fill="white"/>
</clipPath>
</defs>
</svg>
