<svg width="21" height="20" viewBox="0 0 21 20" fill="none" xmlns="http://www.w3.org/2000/svg">
<path d="M11.3537 0.000488281C12.4542 0.00342291 13.0127 0.00929218 13.495 0.0229871L13.6848 0.0298346C13.9039 0.0376603 14.1201 0.0474423 14.3813 0.0591809C15.4221 0.108091 16.1323 0.272431 16.7554 0.514049C17.401 0.762515 17.9449 1.09902 18.4888 1.64193C18.9862 2.13093 19.3711 2.72245 19.6167 3.37532C19.8583 3.99844 20.0226 4.70862 20.0715 5.75041C20.0833 6.01062 20.093 6.2268 20.1009 6.4469L20.1067 6.63667C20.1214 7.11795 20.1273 7.67651 20.1292 8.777L20.1302 9.50674V10.7882C20.1326 11.5017 20.1251 12.2152 20.1077 12.9285L20.1018 13.1183C20.094 13.3384 20.0842 13.5546 20.0725 13.8148C20.0236 14.8566 19.8573 15.5658 19.6167 16.1899C19.3718 16.8431 18.9868 17.4348 18.4888 17.9233C17.9996 18.4205 17.4082 18.8054 16.7554 19.0511C16.1323 19.2928 15.4221 19.4571 14.3813 19.506C14.1492 19.5169 13.917 19.5267 13.6848 19.5354L13.495 19.5412C13.0127 19.5549 12.4542 19.5618 11.3537 19.5637L10.624 19.5647H9.34348C8.62964 19.5672 7.9158 19.5597 7.20218 19.5422L7.0124 19.5363C6.78019 19.5275 6.54802 19.5174 6.31592 19.506C5.2751 19.4571 4.56492 19.2928 3.94082 19.0511C3.28803 18.806 2.69675 18.421 2.20841 17.9233C1.71055 17.4344 1.32531 16.8429 1.07955 16.1899C0.837937 15.5668 0.673597 14.8566 0.624687 13.8148C0.613788 13.5827 0.604006 13.3505 0.59534 13.1183L0.590449 12.9285C0.572423 12.2152 0.56427 11.5017 0.565994 10.7882V8.777C0.563264 8.06349 0.570438 7.34998 0.587515 6.63667L0.594362 6.4469C0.602188 6.2268 0.61197 6.01062 0.623709 5.75041C0.672619 4.70862 0.836958 3.99941 1.07858 3.37532C1.32422 2.72178 1.71023 2.13008 2.20939 1.64193C2.69761 1.14448 3.2885 0.759567 3.94082 0.514049C4.56492 0.272431 5.27412 0.108091 6.31592 0.0591809C6.57612 0.0474423 6.79328 0.0376603 7.0124 0.0298346L7.20218 0.0239653C7.91548 0.00658518 8.62899 -0.000915156 9.3425 0.00146642L11.3537 0.000488281ZM10.3481 4.89154C9.05091 4.89154 7.80686 5.40685 6.8896 6.3241C5.97235 7.24135 5.45705 8.48541 5.45705 9.7826C5.45705 11.0798 5.97235 12.3238 6.8896 13.2411C7.80686 14.1583 9.05091 14.6737 10.3481 14.6737C11.6453 14.6737 12.8893 14.1583 13.8066 13.2411C14.7239 12.3238 15.2392 11.0798 15.2392 9.7826C15.2392 8.48541 14.7239 7.24135 13.8066 6.3241C12.8893 5.40685 11.6453 4.89154 10.3481 4.89154ZM10.3481 6.84796C10.7335 6.8479 11.1151 6.92374 11.4712 7.07116C11.8272 7.21858 12.1508 7.43469 12.4233 7.70715C12.6959 7.97961 12.9121 8.30309 13.0597 8.65911C13.2072 9.01513 13.2832 9.39673 13.2832 9.78211C13.2833 10.1675 13.2074 10.5491 13.06 10.9052C12.9126 11.2613 12.6965 11.5848 12.424 11.8573C12.1516 12.1299 11.8281 12.3461 11.4721 12.4937C11.1161 12.6412 10.7345 12.7172 10.3491 12.7172C9.57077 12.7172 8.82433 12.408 8.27398 11.8577C7.72363 11.3073 7.41445 10.5609 7.41445 9.7826C7.41445 9.00428 7.72363 8.25785 8.27398 7.7075C8.82433 7.15715 9.57077 6.84796 10.3491 6.84796M15.4847 3.42423C15.1604 3.42423 14.8494 3.55305 14.6201 3.78237C14.3908 4.01168 14.2619 4.32269 14.2619 4.64699C14.2619 4.97129 14.3908 5.2823 14.6201 5.51161C14.8494 5.74093 15.1604 5.86975 15.4847 5.86975C15.809 5.86975 16.12 5.74093 16.3493 5.51161C16.5786 5.2823 16.7075 4.97129 16.7075 4.64699C16.7075 4.32269 16.5786 4.01168 16.3493 3.78237C16.12 3.55305 15.809 3.42423 15.4847 3.42423Z" fill="#1B1B20"/>
</svg>
