<svg width="17" height="17" viewBox="0 0 17 17" fill="none" xmlns="http://www.w3.org/2000/svg">
<path d="M11.5 7C11.5 10.0376 9.03757 12.5 6 12.5C2.96243 12.5 0.5 10.0376 0.5 7C0.5 3.96243 2.96243 1.5 6 1.5C9.03757 1.5 11.5 3.96243 11.5 7Z" fill="#BC92FF"/>
<path fill-rule="evenodd" clip-rule="evenodd" d="M4.62987 0.570903C5.53982 0.193993 6.51509 0 7.5 0C8.48491 0 9.46018 0.193993 10.3701 0.570903C11.2801 0.947814 12.1069 1.50026 12.8033 2.1967C13.4997 2.89314 14.0522 3.71993 14.4291 4.62987C14.806 5.53982 15 6.51509 15 7.5C15 8.48491 14.806 9.46018 14.4291 10.3701C14.0522 11.2801 13.4997 12.1069 12.8033 12.8033C12.1069 13.4997 11.2801 14.0522 10.3701 14.4291C9.46018 14.806 8.48491 15 7.5 15C6.51509 15 5.53982 14.806 4.62987 14.4291C3.71993 14.0522 2.89314 13.4997 2.1967 12.8033C1.50026 12.1069 0.947814 11.2801 0.570904 10.3701C0.193993 9.46018 0 8.48491 0 7.5C0 6.51509 0.193993 5.53982 0.570904 4.62987C0.947814 3.71993 1.50026 2.89314 2.1967 2.1967C2.89314 1.50026 3.71993 0.947814 4.62987 0.570903ZM7.5 1C6.64641 1 5.80117 1.16813 5.01256 1.49478C4.22394 1.82144 3.50739 2.30023 2.90381 2.90381C2.30023 3.50739 1.82144 4.22394 1.49478 5.01256C1.16813 5.80117 1 6.64641 1 7.5C1 8.35359 1.16813 9.19883 1.49478 9.98744C1.82144 10.7761 2.30022 11.4926 2.90381 12.0962C3.50739 12.6998 4.22394 13.1786 5.01256 13.5052C5.80117 13.8319 6.64641 14 7.5 14C8.35359 14 9.19883 13.8319 9.98744 13.5052C10.7761 13.1786 11.4926 12.6998 12.0962 12.0962C12.6998 11.4926 13.1786 10.7761 13.5052 9.98744C13.8319 9.19883 14 8.35359 14 7.5C14 6.64641 13.8319 5.80117 13.5052 5.01256C13.1786 4.22394 12.6998 3.50739 12.0962 2.90381C11.4926 2.30022 10.7761 1.82144 9.98744 1.49478C9.19883 1.16813 8.35359 1 7.5 1Z" fill="#545454"/>
<path fill-rule="evenodd" clip-rule="evenodd" d="M12.1464 12.1464C12.3417 11.9512 12.6583 11.9512 12.8536 12.1464L16.8536 16.1464C17.0488 16.3417 17.0488 16.6583 16.8536 16.8536C16.6583 17.0488 16.3417 17.0488 16.1464 16.8536L12.1464 12.8536C11.9512 12.6583 11.9512 12.3417 12.1464 12.1464Z" fill="#6B29D2"/>
</svg>
